<svg xmlns="http://www.w3.org/2000/svg" viewBox="0 0 406.77 436.76"><defs><style>.cls-1{fill:#909e87;}.cls-2{fill:#221414;}</style></defs><g id="Lag_2" data-name="Lag 2"><g id="Lag_2-2" data-name="Lag 2"><path class="cls-1" d="M127.66,321c6,1.76,13.27-.39,19.47-1.05q14.09-1.5,28.24-2.36c18.56-1.13,37.17-1.46,55.76-1.17a813.28,813.28,0,0,1,112.28,9.06c20.33,3.16,40.44,7.8,59.59,15.46,3.75,1.51,5.39-4.58,1.67-6.06-33.93-13.59-70.88-17.65-107-20.85-38.06-3.37-76.35-4.26-114.48-1.59-18.65,1.3-37.08,3.71-55.52,6.6-1,.16-.89,1.7,0,2Z"/><path class="cls-2" d="M150.87,240.09c-13.08-9.18-25.8,6.2-30.17,17.31-4.71,12-5.32,31,5.43,40.17,4.29,3.66,10.18,4.19,14.76.74,5.24-3.95,7.28-11,9.26-17,5.88-17.68,9.31-36,11.71-54.48,2.82-21.78,4.28-43.72,6.07-65.6.24-2.94-4.32-3.44-5.07-.68-7.48,27.85-9.45,56.7-11.45,85.35-.49,7-1,13.93-1.23,20.91-.25,6.47-1.11,13.8.33,20.19.9,4,3.41,7.88,7.48,9.2,4.93,1.6,9-1.6,11.9-5.24a86.28,86.28,0,0,0,18.28-49.68c.14-3.75-.23-8.52-4.81-9.27-9.42-1.52-13.16,16.83-14.32,22.86-1.86,9.66-3.4,25.14,3.36,33.42,3.22,3.94,8.34,4.92,13,3.28,5.64-2,9-7.13,11.3-12.33,6.26-14.14,8.95-29.63,11.69-44.75l-4.71.62c6.58,11.1,18.24,20.53,20.4,33.81,1,6.1-1,13.48-6.58,16.82s-14-.07-14-6.94c0-3.31-5.19-3.32-5.16,0,.07,6.85,5.37,12,12,13.2,7.27,1.3,13.79-3.39,16.91-9.73,9.33-19-10.39-35.13-19.06-49.76-1-1.78-4.3-1.65-4.71.61-1.75,9.65-3.49,19.32-6.13,28.78-2.17,7.76-5.26,23-14.61,25.11-11.18,2.48-10.13-18.2-9.57-24.6a64.1,64.1,0,0,1,3-14.55,39.28,39.28,0,0,1,3-7.39c1.43-2.46,3.91-3.82,3.82,0A81.08,81.08,0,0,1,171.5,279.6c-2.3,3.84-6,11.4-10.81,11.36-6.1,0-5.6-8.32-5.6-12.7,0-5.4.19-10.79.46-16.18.51-10.14,1.28-20.27,2-30.39,1.75-23.48,4.12-46.95,10.25-69.74l-5.07-.69c-3,36.71-4.66,74.18-14.84,109.79-2,7-3.71,17.16-9.22,22.36-8.64,8.15-14.6-7.37-15.54-13.62a40.3,40.3,0,0,1,3.85-24c3.73-7.36,12.31-17.54,21.25-11.27,2.72,1.91,5.3-2.56,2.6-4.45Z"/><path class="cls-2" d="M147.83,159.2c8.1-21.35,12.08-46.45,7.56-69.09-1.5-7.52-4.73-15.8-11.26-20.35-7.56-5.28-16.55-3-23.4,2.32-15.16,11.81-25.15,31.64-31.34,49.41-6.83,19.58-9.65,40.47-10.17,61.14-1.27,50,11.66,99.12,10.36,149.1-.32,12.37-1.44,24.79-4.49,36.81-2.28,9-6.62,28.87-19,27.7C52.59,395,49.65,377.83,48.72,367.06A113.47,113.47,0,0,1,52,330.32c12.93-52.63,53-94.52,61.56-148.62.51-3.24-4.46-4.64-5-1.37-7.64,48.25-40.45,86.82-56.54,132-7.61,21.39-12.11,45.69-6.36,68.11,2.2,8.56,7,17,15.79,20,8.65,2.9,16.21-1.15,20.47-8.81C93.13,371.57,94.86,346.5,94.83,324c0-25.76-3.45-51.36-6.37-76.91-5.11-44.61-8.75-92.23,9.9-134.44,5.79-13.1,32-59.48,47.84-33,6.17,10.33,6,24.22,5.51,35.82a134.94,134.94,0,0,1-8.86,42.32c-1.17,3.11,3.81,4.45,5,1.37Z"/><path class="cls-2" d="M3.15,257.26C24.58,250,31,226.06,36.52,206.6c6.38-22.38,12.84-44.75,18.58-67.31a521.17,521.17,0,0,0,15.15-97c.63-10.17,1.8-20.71.6-30.86-.54-4.58-2-10-7.14-11.1-3.33-.68-6.4-.31-9.22,2.76-4,4.36-6.43,10.46-8.72,15.83C28.6,59.15,21.33,102.67,21.2,146.29c-.09,30.88,2.57,62.83,12.68,92.2,1.67,4.82,3.27,13,8.53,15.38,3.91,1.76,7.57-.3,10.06-3.38,4.1-5.06,4.54-11.53,5.4-17.72l3.38-24.29-3.17,1.8c8.33,2.48,11.85,10.56,13.19,18.53A55,55,0,0,1,71.83,241a31.7,31.7,0,0,1-.81,6.52,9.82,9.82,0,0,1-1.2,3.13c-1,1.32-4.73,3.48-5.41.17s-5.64-1.87-5,1.37c1.12,5.43,8,7,12.19,4,5.52-3.93,5.48-13,5.45-19,0-12.76-4-27.81-17.63-31.88a2.59,2.59,0,0,0-3.17,1.8l-2.6,18.68c-.81,5.81-.87,12.39-3.16,17.85-.69,1.65-2.36,5.46-4.49,5.67-3.68.35-5-6.15-6-8.77a182.14,182.14,0,0,1-5.85-19.1c-6.09-24.46-7.95-50-7.87-75.15C26.48,106,33,66.86,47.2,29.1a122.27,122.27,0,0,1,8.14-18.22,41.88,41.88,0,0,1,3.29-4.72c1-1.3.89-1,2.75-.86,5,.42,4.54,7.3,4.66,11.21.27,9.58-.52,19.22-1.14,28.77a490,490,0,0,1-12.76,84.58c-5,20.6-10.83,41-16.62,61.39s-10.28,53.05-33.74,61c-3.13,1.06-1.79,6,1.37,5Z"/><path class="cls-2" d="M233.92,265.38c12.38-.68,22.17-15.13,26.89-25.27,1.13-2.43-2.08-5.59-4.05-3.12a121.66,121.66,0,0,0-12.08,18.08c-3,5.55-6.07,11.7-6.07,18.15,0,10.07,9.71,20.32,19.77,13.84,2.78-1.8.2-6.26-2.6-4.46-5,3.25-10.25-.57-11.58-5.74-1.07-4.11,0-8.38,1.55-12.23,3.47-8.63,8.89-16.75,14.66-24l-4.05-3.13a54.27,54.27,0,0,1-8.59,13.35c-3.51,3.94-8.27,9.06-13.85,9.36-3.3.19-3.32,5.34,0,5.16Z"/><path class="cls-2" d="M293.7,248.3c-9.3-7.49-20.34,2-26.1,9.43a48.67,48.67,0,0,0-8.31,16.53c-1.25,4.5-3.05,11.2-.26,15.45,6.24,9.54,19.89-2.18,24.59-7.53,7.94-9,12.43-20.44,16.64-31.55L295.2,250q-.42,40.35-3.28,80.63-1.41,19.64-3.41,39.22c-1.31,12.81-2.3,25.86-4.89,38.49-1.21,5.9-2.84,12-5.75,17.27-3.72,6.8-11.18,8-17,2.81-8.76-7.76-9.9-22.86-8.94-33.7,2.18-24.68,17.25-45.35,31.29-64.78,7.48-10.34,15-20.75,21.45-31.79,5.39-9.24,10.43-19.31,11.17-30.15.22-3.31-4.94-3.3-5.16,0-.82,12-7.63,23.25-13.9,33.2-6.76,10.73-14.29,20.94-21.68,31.23-14.9,20.75-29.78,44.24-28.53,70.87.48,10.12,3.12,22.34,11.19,29.26,7.64,6.56,18.54,5.55,23.91-3.12,6.25-10.07,7.78-22.86,9.21-34.36,1.85-14.91,3.38-29.86,4.68-44.83q4.35-50,4.84-100.25c0-3.07-4.08-3.29-5.07-.69-5.12,13.49-11.76,31.67-26.2,37.82a8.3,8.3,0,0,1-2.26.78c-3.09-.12-4.42-1.41-4-3.87-.37-2,.56-4.84,1.05-6.84a43.44,43.44,0,0,1,4.74-11.72c3.16-5.41,13.81-19.62,21.44-13.48,2.57,2.06,6.24-1.57,3.65-3.65Z"/><path class="cls-2" d="M309.7,252.58a367.31,367.31,0,0,1,.68,48.53c-.15,3,4.27,3.42,5.07.69,3.93-13.42,2.28-28.68,8.74-41.32,1.6-3.14,4.23-7.58,7.9-8.62,6.62-1.86,5.85,6.21,5.76,10.37-.18,8.8-.48,17.6-.54,26.39,0,5.36.7,11.32,5.78,14.28s9.46.16,12.55-4a54,54,0,0,0,9.19-19.78,61.29,61.29,0,0,0,1.4-9.25c.18-2.1.26-4.21.5-6.3.29-2.65.06-5.82,3.11-3.68,6.42,4.53,10.94,15.3,12.16,22.72.74,4.54.51,10.13-3,13.53-3,2.92-8.12,3.77-11.27.67-2.36-2.33-6,1.32-3.64,3.65,4.4,4.33,11,4.4,16.11,1.22,6.58-4.05,8-12.32,7-19.42-1.15-8-5-15.64-10-21.88-3-3.75-10.73-11.78-14.27-4-1.66,3.67-1.43,8.65-1.75,12.57a54.76,54.76,0,0,1-3.59,16.08,50.47,50.47,0,0,1-3.52,7c-1,1.63-3.16,6-5.13,6.51-2.53.64-5-1.47-5.83-3.56a13.64,13.64,0,0,1-.61-4c-.14-3,.07-6.09.13-9.11l.33-15.75c.09-4.32.88-9.31-.4-13.52-1.9-6.24-9.14-7.59-14.35-4.61-7.46,4.26-10.92,14.11-12.58,22-2.1,10.07-2.22,20.45-5.13,30.37l5.07.68a369,369,0,0,0-.68-48.53c-.26-3.28-5.42-3.31-5.16,0Z"/><path class="cls-1" d="M256.89,219.8l-1.28,0,1.8,2.37c.57-3.46,5-6.41,7.84-8a35.74,35.74,0,0,1,4.61-2.15c2.27-.89,3.66-2.08,5.21.05,1.74,2.39-1.15,3.82-3,5.3a26.69,26.69,0,0,1-4.31,2.83,17.27,17.27,0,0,1-6.38,1.91c-1.37,0-2.74,0-4.11,0A12.85,12.85,0,0,1,260,219c2.11-2-1.05-5.11-3.16-3.15-1.87,1.73-5,4.72-4,7.65s5.88,3.22,8.48,3.1c7-.33,16.89-5.89,19.42-12.74,3-8.18-6.33-8.15-11.42-6.22-5.67,2.15-15.27,7-15.62,14.09a1.88,1.88,0,0,0,2.81,1.61l1.1-.73c1.16-.78.82-2.86-.76-2.8Z"/></g></g></svg>