<svg xmlns="http://www.w3.org/2000/svg" viewBox="0 0 134.85 146.22"><defs><style>.cls-1,.cls-2{fill:none;stroke:#d99b62;stroke-width:2px;}.cls-1{stroke-linecap:round;stroke-linejoin:round;}.cls-2{stroke-miterlimit:10;}</style></defs><g id="Lag_2" data-name="Lag 2"><g id="Lag_3" data-name="Lag 3"><path class="cls-1" d="M48.71,16.56a38.3,38.3,0,0,1-2.52,16.3"/><path class="cls-1" d="M40.74,26.49a20.66,20.66,0,0,1,.06,4.92,20.9,20.9,0,0,1-.93,4.22"/><path class="cls-1" d="M30.41,41.09A21.35,21.35,0,0,0,29,46.26c-.06.42-.1.83-.13,1.23"/><path class="cls-1" d="M24.92,49.66a51.55,51.55,0,0,1-1.48,6.4c-1.1,3.67-2.29,6.11-3.14,10.68-.12.67-.21,1.23-.26,1.58"/><path class="cls-1" d="M9.52,78.45a41.43,41.43,0,0,0-2.58,17"/><path class="cls-1" d="M18.84,115.17a7.73,7.73,0,0,0-5.44,2"/><path class="cls-1" d="M26.8,105.74a10.6,10.6,0,0,0-5,1,10.18,10.18,0,0,0-2.25,1.48"/><path class="cls-1" d="M37.07,90.69a22.83,22.83,0,0,1-9.75,6.63"/><path class="cls-1" d="M50.63,65.65a7.15,7.15,0,0,1-7.1,2.28"/><path class="cls-1" d="M43.53,61.06A41.11,41.11,0,0,0,57.79,50.49"/><path class="cls-1" d="M55.53,37.62A55.8,55.8,0,0,0,62,30.93a55,55,0,0,0,5.43-8"/><line class="cls-1" x1="70.07" y1="2.96" x2="67.78" y2="8.09"/><path class="cls-2" d="M68.77,1.29C75.87,5.11,61,48,45.18,76.91c-8.72,15.92-28.95,48.08-38.89,45-3-.91-4.06-4.67-4.5-6.2C-6.85,85.69,57.63-4.72,68.77,1.29Z"/><path class="cls-1" d="M62.86,2.9a23.28,23.28,0,0,0-2.62,10"/><line class="cls-2" x1="5.03" y1="121.3" x2="68.81" y2="1.24"/><path class="cls-1" d="M89.13,24a42.42,42.42,0,0,1-1.44,9.73,43.19,43.19,0,0,1-3.21,8.42"/><path class="cls-1" d="M79,34.32a23.11,23.11,0,0,1-.48,5.57A22.45,22.45,0,0,1,77,44.56"/><path class="cls-1" d="M65.74,49.68a24.49,24.49,0,0,0-2.18,5.69c-.11.47-.21.93-.29,1.37"/><path class="cls-1" d="M58.59,58.76a57.86,57.86,0,0,1-2.39,7.06c-1.65,4-3.26,6.66-4.73,11.73-.21.75-.37,1.36-.47,1.75"/><path class="cls-1" d="M38,89.59a46.84,46.84,0,0,0-3.92,11.48,47.81,47.81,0,0,0-.89,7.46"/><path class="cls-1" d="M44.46,132.12a8.84,8.84,0,0,0-3.45.22,9,9,0,0,0-2.92,1.4"/><path class="cls-1" d="M54.5,122.35a11.88,11.88,0,0,0-5.75.58A11.49,11.49,0,0,0,46,124.34"/><path class="cls-1" d="M67.77,106.48A26.24,26.24,0,0,1,56,112.89"/><path class="cls-1" d="M85.87,79.67a8.05,8.05,0,0,1-3.55,2,8.25,8.25,0,0,1-4.73-.18"/><path class="cls-1" d="M78.36,73.7A46.4,46.4,0,0,0,95.64,63.33"/><path class="cls-1" d="M94.51,48.54a62.55,62.55,0,0,0,8-6.84,62.8,62.8,0,0,0,7-8.48"/><line class="cls-1" x1="114.78" y1="10.98" x2="111.62" y2="16.52"/><path class="cls-2" d="M113.49,8.94c7.6,5.12-13.95,52-35,82.86-11.62,17-38,51.13-48.93,46.56-3.26-1.36-4.07-5.73-4.39-7.51C18.69,96,101.58.93,113.49,8.94Z"/><path class="cls-1" d="M106.64,10.11a26.26,26.26,0,0,0-2.75,5.53,27.2,27.2,0,0,0-1.32,5.52"/><line class="cls-2" x1="28.17" y1="137.52" x2="113.55" y2="8.9"/><path class="cls-1" d="M112.32,54.91a35.13,35.13,0,0,1-4.64,14.48"/><path class="cls-1" d="M103.64,62.81a18.84,18.84,0,0,1-2.11,8.2"/><path class="cls-1" d="M92.13,74.62a19.51,19.51,0,0,0-2,4.51c-.11.37-.21.74-.3,1.1"/><path class="cls-1" d="M85.9,81.64a49,49,0,0,1-2.27,5.61c-1.54,3.19-3,5.24-4.39,9.28-.22.59-.37,1.08-.47,1.4"/><path class="cls-1" d="M67.74,105.64A38,38,0,0,0,64,114.76a37.57,37.57,0,0,0-1.07,6"/><path class="cls-1" d="M70.94,140.42a7.22,7.22,0,0,0-5.24,1"/><path class="cls-1" d="M79.55,133a9.59,9.59,0,0,0-4.69.2,8.88,8.88,0,0,0-2.26,1"/><path class="cls-1" d="M91.07,120.75a21.31,21.31,0,0,1-5.46,3.33,20.58,20.58,0,0,1-4.38,1.3"/><path class="cls-1" d="M107,99.89a6.59,6.59,0,0,1-6.8,1.06"/><path class="cls-1" d="M101.21,94.69a37.57,37.57,0,0,0,14.5-7.58"/><path class="cls-1" d="M115.5,75.07a51.7,51.7,0,0,0,6.84-5.16,51.14,51.14,0,0,0,6.1-6.54"/><line class="cls-1" x1="133.73" y1="45.59" x2="130.9" y2="49.94"/><path class="cls-2" d="M132.78,43.88c5.92,4.51-13.79,41.45-32.35,65.49C90.2,122.61,67.15,149,58.54,144.77c-2.57-1.26-3-4.84-3.2-6.3C51.79,109.88,123.5,36.82,132.78,43.88Z"/><path class="cls-1" d="M127.17,44.5a21.55,21.55,0,0,0-2.49,4.35,21.16,21.16,0,0,0-1.33,4.41"/><line class="cls-2" x1="57.48" y1="144.02" x2="132.83" y2="43.85"/></g></g></svg>